<?xml version="1.0" standalone="no"?><!DOCTYPE svg PUBLIC "-//W3C//DTD SVG 1.1//EN" "http://www.w3.org/Graphics/SVG/1.1/DTD/svg11.dtd"><svg t="1715700000074" class="icon" viewBox="0 0 1024 1024" version="1.1" xmlns="http://www.w3.org/2000/svg" p-id="1442" xmlns:xlink="http://www.w3.org/1999/xlink" width="200" height="200"><path d="M434.816 77.376c0-43.648 33.664-77.312 76.8-77.312s77.888 33.664 77.888 77.312v681.408l163.136-163.2a76.8 76.8 0 0 1 109.568 0c30.72 29.76 30.72 78.848 0 109.632L567.68 999.296l-0.96 1.024-3.52 4.48-3.456 2.432a76.8 76.8 0 0 1-98.688-2.432l-4.48-4.48-295.616-295.04a78.592 78.592 0 0 1 0-109.632 76.224 76.224 0 0 1 109.12 0l164.672 163.2V77.376h0.064z" fill="#349363" p-id="1443"></path></svg>