<?xml version="1.0" standalone="no"?><!DOCTYPE svg PUBLIC "-//W3C//DTD SVG 1.1//EN" "http://www.w3.org/Graphics/SVG/1.1/DTD/svg11.dtd"><svg t="1715699983709" class="icon" viewBox="0 0 1024 1024" version="1.1" xmlns="http://www.w3.org/2000/svg" p-id="17261" xmlns:xlink="http://www.w3.org/1999/xlink" width="200" height="200"><path d="M435.072096 947.136096c0 42.111947 33.215958 76.863904 76.415905 76.863904 43.711945 0 77.887903-34.751957 77.887902-76.863904V264.960949l163.775796 163.199796c30.655962 30.335962 79.359901 30.335962 110.079862 0a77.631903 77.631903 0 0 0 0-109.119864L568.06393 23.80925 567.039931 22.401252 563.135936 19.329256 559.61594 17.345258c-30.207962-23.295971-68.415914-23.295971-97.215878 0.959999L456.896069 22.401252 160.768439 318.976881a77.823903 77.823903 0 0 0 0 109.119864 77.439903 77.439903 0 0 0 109.631863 0l164.735794-163.199796v682.239147h-0.064z" fill="#C13432" p-id="17262"></path></svg>